<?xml version="1.0" encoding="UTF-8"?>
<svg xmlns="http://www.w3.org/2000/svg" version="1.1" xmlns:xlink="http://www.w3.org/1999/xlink" viewBox="0 0 1920 1080">
  <defs>
    <style>
      .cls-1 {
        fill: url(#_未命名的渐变_3);
      }

      .cls-2 {
        fill: url(#_未命名的渐变_8);
        opacity: .39;
      }
    </style>
    <radialGradient id="_未命名的渐变_3" data-name="未命名的渐变 3" cx="922.19" cy="601.8" fx="883.86" fy="751.6" r="242.22" gradientTransform="translate(0 54.71) scale(1 .91)" gradientUnits="userSpaceOnUse">
      <stop offset="0" stop-color="#fff"/>
      <stop offset=".13" stop-color="#eef2f8"/>
      <stop offset=".62" stop-color="#b2c7e1"/>
      <stop offset=".86" stop-color="#9bb7d8"/>
    </radialGradient>
    <linearGradient id="_未命名的渐变_8" data-name="未命名的渐变 8" x1="922.19" y1="891.8" x2="922.19" y2="318.41" gradientUnits="userSpaceOnUse">
      <stop offset=".54" stop-color="#fff"/>
      <stop offset=".59" stop-color="#f7f9fc"/>
      <stop offset=".67" stop-color="#e3eaf3"/>
      <stop offset=".76" stop-color="#c2d2e6"/>
      <stop offset=".87" stop-color="#95b0d3"/>
      <stop offset=".92" stop-color="#7d9fca"/>
    </linearGradient>
  </defs>
  <!-- Generator: Adobe Illustrator 28.6.0, SVG Export Plug-In . SVG Version: 1.2.0 Build 709)  -->
  <g>
    <g id="_图层_1" data-name="图层_1">
      <path class="cls-1" d="M1083.9,793.44c2.09.54,3.57-.42,4.59-2.08,4.28-6.97,8.14-14.17,11.51-21.63,1.53-3.38,3.92-6.42,3.8-10.4.16-.54.31-1.09.47-1.63,2.58-1.81,3.9-4.21,3.43-7.43.18-.53.35-1.06.53-1.59,2.05-.39,2.34-1.43,1.1-3.02,1.66-4.98,3.31-9.97,4.97-14.95,2.4-.82,2.15-2.31,1.02-4.03.11-.62.21-1.24.32-1.86,1.83-1.33,2.7-2.94,1.51-5.16.11-.63.21-1.26.32-1.89,1.86-.52,2.03-1.59,1-3.06.12-.62.24-1.23.36-1.85,2.69-3.42,4.65-1.1,6.81.77,4.68,4.05,13.89,4.44,16.11.32,2.09-3.86,3.96-8.04,4.28-12.57.71-10.1-.27-20.09-2.52-29.93-2.16-9.44-4.58-18.83-6.88-28.24,7.04-14.63,4.18-32.69-16.65-40.36.58-10.02-2.3-19.72-2.79-29.61-.88-17.77-4.76-35.05-7.86-52.47-2.9-16.31-8.23-31.88-13.84-47.39-6.02-16.62-13.56-32.21-26.72-44.65-10.75-10.17-22.18-19.48-33.86-28.49-17.09-13.18-35.21-24.49-56.05-31.08-3-.95-6.24-1.01-9.26-2.77-7.7-4.49-11.58-11.79-15.37-19.11-5.01-9.67-8.92-19.89-16-28.43-6.13-7.39-18.9-10.11-27.25-5.28-9.94,5.75-14.79,15.27-18.83,25.51-5.33,13.52-11.19,25.46-28.13,29.38-17.85,4.13-33.69,14.09-48.39,25.27-7.11,5.41-14.26,10.83-21.49,16.02-11.06,7.95-18.08,19.03-26.29,29.28-4.2,5.24-6.96,11.1-9.89,17.06-3.25,6.63-6.27,13.34-8.74,20.23-3.55,9.89-7.63,19.58-10.07,29.93-1.97,8.35-3.86,16.73-6.05,25.03-1.34,5.1-.2,10.3-1.41,15.33-2.55,10.59-3.62,21.38-4.52,32.2-.69,8.35-2.44,16.61-1.87,25.05-.17.23-.39.36-.68.4-7.86.39-16.14,10.3-16.3,19.51-.39,4.62-.51,9.23.17,13.84-1.99,4.44-3.66,9.03-4.3,13.82-.61,4.59-1.1,9.18-2.01,13.73-1.42,7.12-3.21,14.23-3.88,21.43-.64,6.8.48,13.65,1.77,20.42.88,4.61,4.34,7.25,7.75,9.17,3.3,1.86,7.08.46,9.95-2.47,1.38-1.41,3.04-2.55,4.63-3.75,2.72-2.06,4.58-.41,5.43,1.89,1.19,3.24,2.58,6.79,2.35,10.1-.62,8.83,4.34,16.04,6.74,23.82,3.07,9.95,7.58,19.69,13.13,28.77,3.49,5.71,5.27,12.85,9.74,17.5,7.18,7.47,11.57,16.94,19.52,23.98,4.82,4.27,9,9.85,13.85,14.49,10.21,9.75,21.78,17.58,34.21,24.18,3.95,2.1,8.01,3.94,7.11,9.7-.25,1.56.42,3.27.69,4.91,2.92,18.25,21.9,28.44,38.38,20.41,7.46-3.63,13.49-10.94,23.17-8.53.1.03.33-.44.54-.74-1.24-1.24-2.79-.54-4.17-.62-2.3-.14-5.55.24-5.58-2.64-.04-3.45,3.33-3.81,6.06-3.34,4.94.85,10.01.31,14.86,1.13,14.68,2.5,29.12-.73,43.62-1.58,2.85-.17,5.81-1.24,8.85-.64.09.59.18,1.17.27,1.76.02.66-.16,1.41.09,1.96,5.75,12.45,19.96,18.1,30.8,15.34,4.08-1.04,8.79-1.63,10.73-6.48,1.25-1.2,2.51-2.4,3.76-3.59,1.64-.46,2.81-1.26,2.39-3.24.11-.3.29-.56.52-.78,4.1-4.37,4.77-9.78,4.54-15.39-.11-2.62.17-6.21,2.31-6.53,3.31-.49,4.9-2.94,7.42-4.17,14.94-7.32,26.95-18.67,39.3-29.44,7.05-6.15,13.04-13.49,18.74-20.99,1.85-2.43,2.79-4.78,2.13-7.74h-.01Z"/>
      <path class="cls-2" d="M1083.9,793.44c2.09.54,3.57-.42,4.59-2.08,4.28-6.97,8.14-14.17,11.51-21.63,1.53-3.38,3.92-6.42,3.8-10.4.16-.54.31-1.09.47-1.63,2.58-1.81,3.9-4.21,3.43-7.43.18-.53.35-1.06.53-1.59,2.05-.39,2.34-1.43,1.1-3.02,1.66-4.98,3.31-9.97,4.97-14.95,2.4-.82,2.15-2.31,1.02-4.03.11-.62.21-1.24.32-1.86,1.83-1.33,2.7-2.94,1.51-5.16.11-.63.21-1.26.32-1.89,1.86-.52,2.03-1.59,1-3.06.12-.62.24-1.23.36-1.85,2.69-3.42,4.65-1.1,6.81.77,4.68,4.05,13.89,4.44,16.11.32,2.09-3.86,3.96-8.04,4.28-12.57.71-10.1-.27-20.09-2.52-29.93-2.16-9.44-4.58-18.83-6.88-28.24,7.04-14.63,4.18-32.69-16.65-40.36.58-10.02-2.3-19.72-2.79-29.61-.88-17.77-4.76-35.05-7.86-52.47-2.9-16.31-8.23-31.88-13.84-47.39-6.02-16.62-13.56-32.21-26.72-44.65-10.75-10.17-22.18-19.48-33.86-28.49-17.09-13.18-35.21-24.49-56.05-31.08-3-.95-6.24-1.01-9.26-2.77-7.7-4.49-11.58-11.79-15.37-19.11-5.01-9.67-8.92-19.89-16-28.43-6.13-7.39-18.9-10.11-27.25-5.28-9.94,5.75-14.79,15.27-18.83,25.51-5.33,13.52-11.19,25.46-28.13,29.38-17.85,4.13-33.69,14.09-48.39,25.27-7.11,5.41-14.26,10.83-21.49,16.02-11.06,7.95-18.08,19.03-26.29,29.28-4.2,5.24-6.96,11.1-9.89,17.06-3.25,6.63-6.27,13.34-8.74,20.23-3.55,9.89-7.63,19.58-10.07,29.93-1.97,8.35-3.86,16.73-6.05,25.03-1.34,5.1-.2,10.3-1.41,15.33-2.55,10.59-3.62,21.38-4.52,32.2-.69,8.35-2.44,16.61-1.87,25.05-.17.23-.39.36-.68.4-7.86.39-16.14,10.3-16.3,19.51-.39,4.62-.51,9.23.17,13.84-1.99,4.44-3.66,9.03-4.3,13.82-.61,4.59-1.1,9.18-2.01,13.73-1.42,7.12-3.21,14.23-3.88,21.43-.64,6.8.48,13.65,1.77,20.42.88,4.61,4.34,7.25,7.75,9.17,3.3,1.86,7.08.46,9.95-2.47,1.38-1.41,3.04-2.55,4.63-3.75,2.72-2.06,4.58-.41,5.43,1.89,1.19,3.24,2.58,6.79,2.35,10.1-.62,8.83,4.34,16.04,6.74,23.82,3.07,9.95,7.58,19.69,13.13,28.77,3.49,5.71,5.27,12.85,9.74,17.5,7.18,7.47,11.57,16.94,19.52,23.98,4.82,4.27,9,9.85,13.85,14.49,10.21,9.75,21.78,17.58,34.21,24.18,3.95,2.1,8.01,3.94,7.11,9.7-.25,1.56.42,3.27.69,4.91,2.92,18.25,21.9,28.44,38.38,20.41,7.46-3.63,13.49-10.94,23.17-8.53.1.03.33-.44.54-.74-1.24-1.24-2.79-.54-4.17-.62-2.3-.14-5.55.24-5.58-2.64-.04-3.45,3.33-3.81,6.06-3.34,4.94.85,10.01.31,14.86,1.13,14.68,2.5,29.12-.73,43.62-1.58,2.85-.17,5.81-1.24,8.85-.64.09.59.18,1.17.27,1.76.02.66-.16,1.41.09,1.96,5.75,12.45,19.96,18.1,30.8,15.34,4.08-1.04,8.79-1.63,10.73-6.48,1.25-1.2,2.51-2.4,3.76-3.59,1.64-.46,2.81-1.26,2.39-3.24.11-.3.29-.56.52-.78,4.1-4.37,4.77-9.78,4.54-15.39-.11-2.62.17-6.21,2.31-6.53,3.31-.49,4.9-2.94,7.42-4.17,14.94-7.32,26.95-18.67,39.3-29.44,7.05-6.15,13.04-13.49,18.74-20.99,1.85-2.43,2.79-4.78,2.13-7.74h-.01Z"/>
    </g>
  </g>
</svg>